<svg width="34" height="34" viewBox="0 0 34 34" fill="none" xmlns="http://www.w3.org/2000/svg">
<rect x="0.579834" y="0.5" width="32.8384" height="32.8384" rx="16.4192" stroke="#DCDCDC"/>
<path d="M17.8839 11.9138C18.4867 11.9154 18.7926 11.9186 19.0567 11.9261L19.1607 11.9299C19.2807 11.9342 19.3991 11.9395 19.5421 11.946C20.1122 11.9728 20.5012 12.0628 20.8425 12.1951C21.1961 12.3312 21.494 12.5155 21.7919 12.8128C22.0643 13.0807 22.2751 13.4047 22.4096 13.7622C22.542 14.1035 22.632 14.4925 22.6587 15.0631C22.6652 15.2056 22.6705 15.324 22.6748 15.4446L22.678 15.5485C22.6861 15.8121 22.6893 16.118 22.6904 16.7208L22.6909 17.1205V17.8223C22.6922 18.2131 22.6881 18.6039 22.6786 18.9946L22.6754 19.0986C22.6711 19.2191 22.6657 19.3375 22.6593 19.48C22.6325 20.0506 22.5414 20.4391 22.4096 20.7809C22.2755 21.1387 22.0646 21.4627 21.7919 21.7303C21.524 22.0026 21.2 22.2134 20.8425 22.348C20.5012 22.4804 20.1122 22.5704 19.5421 22.5972C19.415 22.6032 19.2879 22.6085 19.1607 22.6132L19.0567 22.6165C18.7926 22.624 18.4867 22.6277 17.8839 22.6288L17.4842 22.6293H16.7829C16.3919 22.6307 16.001 22.6266 15.6101 22.617L15.5062 22.6138C15.379 22.609 15.2518 22.6034 15.1247 22.5972C14.5546 22.5704 14.1657 22.4804 13.8238 22.348C13.4663 22.2137 13.1424 22.0029 12.875 21.7303C12.6023 21.4625 12.3913 21.1385 12.2567 20.7809C12.1244 20.4396 12.0343 20.0506 12.0076 19.48C12.0016 19.3529 11.9962 19.2257 11.9915 19.0986L11.9888 18.9946C11.9789 18.6039 11.9745 18.2131 11.9754 17.8223V16.7208C11.9739 16.33 11.9778 15.9392 11.9872 15.5485L11.9909 15.4446C11.9952 15.324 12.0006 15.2056 12.007 15.0631C12.0338 14.4925 12.1238 14.1041 12.2562 13.7622C12.3907 13.4043 12.6021 13.0802 12.8755 12.8128C13.1429 12.5404 13.4665 12.3296 13.8238 12.1951C14.1657 12.0628 14.5541 11.9728 15.1247 11.946C15.2672 11.9395 15.3861 11.9342 15.5062 11.9299L15.6101 11.9267C16.0008 11.9172 16.3916 11.913 16.7824 11.9144L17.8839 11.9138ZM17.3332 14.5927C16.6227 14.5927 15.9413 14.8749 15.4389 15.3773C14.9365 15.8797 14.6543 16.5611 14.6543 17.2716C14.6543 17.982 14.9365 18.6634 15.4389 19.1658C15.9413 19.6682 16.6227 19.9504 17.3332 19.9504C18.0436 19.9504 18.725 19.6682 19.2274 19.1658C19.7298 18.6634 20.012 17.982 20.012 17.2716C20.012 16.5611 19.7298 15.8797 19.2274 15.3773C18.725 14.8749 18.0436 14.5927 17.3332 14.5927ZM17.3332 15.6642C17.5442 15.6642 17.7532 15.7057 17.9483 15.7865C18.1433 15.8672 18.3205 15.9856 18.4698 16.1348C18.6191 16.2841 18.7375 16.4612 18.8183 16.6562C18.8991 16.8512 18.9407 17.0602 18.9407 17.2713C18.9408 17.4824 18.8992 17.6914 18.8185 17.8864C18.7378 18.0814 18.6194 18.2586 18.4702 18.4079C18.3209 18.5572 18.1438 18.6756 17.9488 18.7564C17.7538 18.8372 17.5448 18.8789 17.3337 18.8789C16.9074 18.8789 16.4986 18.7095 16.1971 18.4081C15.8957 18.1067 15.7264 17.6979 15.7264 17.2716C15.7264 16.8453 15.8957 16.4364 16.1971 16.135C16.4986 15.8336 16.9074 15.6642 17.3337 15.6642M20.1465 13.789C19.9689 13.789 19.7985 13.8596 19.6729 13.9852C19.5473 14.1108 19.4768 14.2811 19.4768 14.4587C19.4768 14.6364 19.5473 14.8067 19.6729 14.9323C19.7985 15.0579 19.9689 15.1285 20.1465 15.1285C20.3241 15.1285 20.4945 15.0579 20.6201 14.9323C20.7457 14.8067 20.8162 14.6364 20.8162 14.4587C20.8162 14.2811 20.7457 14.1108 20.6201 13.9852C20.4945 13.8596 20.3241 13.789 20.1465 13.789Z" fill="#627EEA"/>
</svg>
