<svg width="34" height="34" viewBox="0 0 34 34" fill="none" xmlns="http://www.w3.org/2000/svg">
<rect x="0.660645" y="0.500122" width="32.8384" height="32.8384" rx="16.4192" stroke="#DCDCDC"/>
<path d="M14.2234 13.6705C14.2233 13.9697 14.1043 14.2565 13.8927 14.4679C13.681 14.6793 13.3941 14.798 13.0949 14.7979C12.7958 14.7977 12.5089 14.6788 12.2975 14.4671C12.0861 14.2555 11.9674 13.9685 11.9675 13.6694C11.9677 13.3702 12.0867 13.0834 12.2983 12.872C12.5099 12.6605 12.7969 12.5418 13.096 12.542C13.3952 12.5421 13.682 12.6611 13.8935 12.8728C14.1049 13.0844 14.2236 13.3714 14.2234 13.6705ZM14.2573 15.6331H12.0014V22.6941H14.2573V15.6331ZM17.8216 15.6331H15.577V22.6941H17.799V18.9888C17.799 16.9246 20.4892 16.7329 20.4892 18.9888V22.6941H22.7168V18.2218C22.7168 14.7421 18.7352 14.8718 17.799 16.5806L17.8216 15.6331Z" fill="#627EEA"/>
</svg>
